<svg preserveAspectRatio="none" width="100%" height="100%" overflow="visible" style="display: block;" viewBox="0 0 30.0003 30" fill="none" xmlns="http://www.w3.org/2000/svg">
<g id="Group">
<path id="Vector" d="M29.9995 11.5821V0L25.1523 10.5107C25.1527 10.5106 29.9995 11.5821 29.9995 11.5821Z" fill="var(--fill-0, #2995CC)"/>
<path id="Vector_2" d="M30 0L23.045 6.07482L26.4732 10.0706L30 0Z" fill="var(--fill-0, #2EC7E6)"/>
<path id="Vector_3" d="M18.418 0H30L19.4893 4.84711C19.4894 4.84676 18.418 0 18.418 0Z" fill="var(--fill-0, #CCF7FF)"/>
<path id="Vector_4" d="M30.0003 0L23.4853 6.51492L19.9297 3.52676L30.0003 0Z" fill="var(--fill-0, #99EEFF)"/>
<path id="Vector_5" d="M0 18.418V30L4.84711 19.4893C4.84676 19.4894 0 18.418 0 18.418Z" fill="var(--fill-0, #CCF7FF)"/>
<path id="Vector_6" d="M11.5821 30H0L10.5107 25.1529C10.5106 25.1532 11.5821 30 11.5821 30Z" fill="var(--fill-0, #2995CC)"/>
<path id="Vector_7" d="M0 30L6.07482 23.045L10.0706 26.4732L0 30Z" fill="var(--fill-0, #2EC7E6)"/>
<path id="Vector_8" d="M0 30L6.51492 23.4851L3.52676 19.9294L0 30Z" fill="var(--fill-0, #99EEFF)"/>
<path id="Vector_9" d="M26.4732 10.0706L17.8318 17.8318L10.0706 26.4732C10.0706 26.4732 9.88383 28.6221 11.5821 30L30 11.5821C28.6221 9.88383 26.4732 10.0706 26.4732 10.0706Z" fill="var(--fill-0, #2EC7E6)"/>
<path id="Vector_10" d="M23.9246 6.07471L14.5593 14.5598L6.07422 23.9251C7.61945 25.4703 10.07 26.4731 10.07 26.4731L26.4726 10.0704C26.4726 10.0704 25.4699 7.61994 23.9246 6.07471Z" fill="var(--fill-0, #99EEFF)"/>
<path id="Vector_11" d="M23.9258 6.07486C22.3805 4.52963 19.93 3.52686 19.93 3.52686L11.2886 11.2881L3.52734 19.9295C3.52734 19.9295 4.53012 22.38 6.07535 23.9253L23.9258 6.07486Z" fill="var(--fill-0, #CCF7FF)"/>
<path id="Vector_12" d="M18.4179 0L0 18.4179C1.37789 20.1162 3.52676 19.9294 3.52676 19.9294L19.9294 3.52676C19.9294 3.52676 20.1162 1.37789 18.4179 0Z" fill="var(--fill-0, #99EEFF)"/>
</g>
</svg>
