<svg preserveAspectRatio="none" width="100%" height="100%" overflow="visible" style="display: block;" viewBox="0 0 192 192" fill="none" xmlns="http://www.w3.org/2000/svg">
<g id="Group">
<path id="Vector" d="M174.527 89.3114L161.67 96.2503L162.512 90.1326L163.836 94.0585L167.409 83.4532C168.631 79.8265 171.549 76.9386 175.215 75.7297L185.931 72.1946L175.215 68.6565C171.549 67.4476 168.631 64.5597 167.409 60.933L166.792 59.0983L170.142 34.7862L145.965 0.616657L111.531 27.8717L105.051 90.3829L89.4326 30.7809L51.4102 0L35.5478 40.8031C32.2864 39.4508 29.6885 36.801 28.5623 33.4613L24.9893 22.856L21.4163 33.4613C20.1945 37.0879 17.2756 39.9758 13.61 41.1847L2.89109 44.7198L13.6131 48.2549C17.2787 49.4638 20.1945 52.3487 21.4163 55.9784L24.9893 66.5837L28.5623 55.9784C29.6082 52.8768 31.9347 50.3857 34.8659 48.954L39.707 80.0921L10.5801 71.4467L0 106.334L28.9294 146.404L21.5397 153.715L31.8884 191.252H44.7795L51.2189 184.881L74.8475 179.688L78.9851 185.147H135.474L152.79 192L192 127.34L174.527 89.3114ZM24.9893 49.5126C23.6903 47.6352 22.0427 46.005 20.1451 44.7198C22.0427 43.4316 23.6872 41.8044 24.9893 39.927C26.2883 41.8044 27.9359 43.4316 29.8335 44.7198C27.9359 46.005 26.2914 47.6352 24.9893 49.5126ZM144.703 112.363L164.61 101.62L153.752 119.525L144.703 112.363ZM172.716 100.121L183.518 123.63L159.757 121.494L172.716 100.121ZM168.68 72.1946C166.782 73.4798 165.138 75.11 163.836 76.9874C162.537 75.11 160.889 73.4798 158.992 72.1946C160.889 70.9064 162.534 69.2792 163.836 67.4018C165.135 69.2792 166.782 70.9064 168.68 72.1946ZM162.086 34.0535L133.774 44.2405L119.087 29.7094L144.681 9.45133L162.086 34.0535ZM116.875 36.1538L129.717 48.8594L115.489 153.032L105.415 146.688L116.875 36.1538ZM90.1175 162.843L82.0614 154.872L93.0734 146.154L103.999 153.032L90.1175 162.843ZM46.168 154.53L31.5367 152.461L44.1131 140.018L60.858 148.303L46.168 154.53ZM64.0267 143.043L34.8597 105.525L43.8539 89.9525L85.2363 144.542L74.8815 152.735L74.0484 154.793L70.6142 146.3L64.0267 143.043ZM62.6661 53.4171L88.5316 138.72L46.4334 83.1876L41.0646 48.6701L62.6661 53.4171ZM103.243 107.811L99.593 143.025L95.4955 140.445L68.6334 51.8511L84.9525 38.0129L103.243 107.811ZM54.1069 10.068L81.8947 32.5607L64.2643 47.5131L41.4966 42.5066L54.1069 10.068ZM14.7146 79.0481L38.8955 86.2251L29.3707 102.722H7.53782L14.7146 79.0481ZM9.38602 108.828H29.6422L51.3794 136.785L42.8943 132.587L33.354 142.026L9.38602 108.828ZM42.2248 185.147H36.603L29.204 158.298L43.82 160.361L46.4272 180.989L42.2248 185.147ZM52.3143 178.385L49.9385 159.571L66.4982 152.549L70.7284 163.014L67.7663 170.341L70.787 174.325L52.3143 178.385ZM74.7796 169.425L78.5686 160.053L87.1524 168.546L91.398 179.041H82.0706L74.7796 169.425ZM121.238 179.041H98.0441L93.5486 167.92L109.612 156.567L124.163 165.728L121.238 179.041ZM121.225 156.643L135.789 50.0102L163.172 40.159L160.343 60.6949L160.263 60.9361C159.041 64.5627 156.122 67.4506 152.457 68.6595L141.738 72.1946L152.46 75.7297C154.552 76.4196 156.35 77.6987 157.779 79.3075L154.943 99.8801L136.44 109.866L125.564 159.369L121.225 156.643ZM141.108 117.339L151.065 125.221L133.808 179.041H127.551L141.108 117.339ZM150.201 184.399L139.871 180.311L156.773 127.355L183.345 129.745L150.201 184.399Z" fill="var(--fill-0, black)"/>
<path id="Vector_2" d="M95.9531 1.98127H102.124V14.1923H95.9531V1.98127Z" fill="var(--fill-0, black)"/>
<path id="Vector_3" d="M83.6113 14.1921H95.9532V20.2976H83.6113V14.1921Z" fill="var(--fill-0, black)"/>
<path id="Vector_4" d="M102.125 14.1921H114.467V20.2976H102.125V14.1921Z" fill="var(--fill-0, black)"/>
<path id="Vector_5" d="M95.9531 20.2979H102.124V32.5089H95.9531V20.2979Z" fill="var(--fill-0, black)"/>
</g>
</svg>
