<svg preserveAspectRatio="none" width="100%" height="100%" overflow="visible" style="display: block;" viewBox="0 0 55 40" fill="none" xmlns="http://www.w3.org/2000/svg">
<path id="Vector" d="M2.75 8H52.25C52.9793 8 53.6788 7.57857 54.1945 6.82843C54.7103 6.07828 55 5.06087 55 4C55 2.93913 54.7103 1.92172 54.1945 1.17157C53.6788 0.421428 52.9793 0 52.25 0H2.75C2.02065 0 1.32118 0.421428 0.805456 1.17157C0.289731 1.92172 0 2.93913 0 4C0 5.06087 0.289731 6.07828 0.805456 6.82843C1.32118 7.57857 2.02065 8 2.75 8ZM52.25 32H2.75C2.02065 32 1.32118 32.4214 0.805456 33.1716C0.289731 33.9217 0 34.9391 0 36C0 37.0609 0.289731 38.0783 0.805456 38.8284C1.32118 39.5786 2.02065 40 2.75 40H52.25C52.9793 40 53.6788 39.5786 54.1945 38.8284C54.7103 38.0783 55 37.0609 55 36C55 34.9391 54.7103 33.9217 54.1945 33.1716C53.6788 32.4214 52.9793 32 52.25 32ZM52.25 16H2.75C2.02065 16 1.32118 16.4214 0.805456 17.1716C0.289731 17.9217 0 18.9391 0 20C0 21.0609 0.289731 22.0783 0.805456 22.8284C1.32118 23.5786 2.02065 24 2.75 24H52.25C52.9793 24 53.6788 23.5786 54.1945 22.8284C54.7103 22.0783 55 21.0609 55 20C55 18.9391 54.7103 17.9217 54.1945 17.1716C53.6788 16.4214 52.9793 16 52.25 16Z" fill="var(--fill-0, #0D5ED5)"/>
</svg>
