<svg preserveAspectRatio="none" width="100%" height="100%" overflow="visible" style="display: block;" viewBox="0 0 39 36" fill="none" xmlns="http://www.w3.org/2000/svg">
<path id="Vector" d="M35.9814 23.5731C33.1318 25.9605 30.1334 27.1211 26.8149 27.1211C19.0826 27.1211 12.7919 21.4844 12.7919 14.556C12.7919 9.21761 16.6661 4.48983 22.4324 2.79145L23.3617 2.51774V0.117121C23.3617 0.117121 20.2833 0 20.0887 0C14.7228 0 9.67814 1.87232 5.88381 5.27206C2.08949 8.6718 0 13.1921 0 18C0 22.8079 2.08958 27.3281 5.88381 30.7279C9.67805 34.1278 14.7228 36 20.0887 36C24.0431 36 27.8939 34.9777 31.2243 33.0436C34.4972 31.1431 37.0534 28.4948 38.6168 25.3852L39 24.6229L36.9359 22.7734L35.9814 23.5731ZM20.0887 33.5785C10.5019 33.5785 2.70251 26.59 2.70251 18C2.70251 10.4224 8.77189 4.09109 16.7834 2.70396C15.4815 3.56344 14.3237 4.58935 13.343 5.76073C11.2144 8.30284 10.0894 11.3443 10.0894 14.556C10.0894 22.8196 17.5924 29.5426 26.8149 29.5426C29.1796 29.5426 31.3954 29.0709 33.5035 28.1118C30.2196 31.5222 25.3387 33.5785 20.0887 33.5785Z" fill="var(--fill-0, black)"/>
</svg>
