<svg width="46" height="46" viewBox="0 0 46 46" fill="none" xmlns="http://www.w3.org/2000/svg">
<path d="M39.9905 8.52002L39.1404 14.6929V14.7076L39.096 14.8319C38.7264 15.9217 37.8615 16.7774 36.7601 17.1431L36.2943 17.2967L36.7601 17.4503C37.5067 17.699 38.1424 18.167 38.5786 18.7814L37.8024 24.3985L33.3374 26.8048L30.5801 39.3627L28.2441 37.8926L31.859 11.4456L39.9905 8.52002Z" fill="#34BDEF"/>
<path d="M31.8595 11.4455L28.2447 37.8925L26.234 36.6272L24.4746 35.5155L25.4874 25.7734V25.7661L27.4241 7.05713L31.8595 11.4455Z" fill="#69D6F4"/>
<path d="M34.8171 1.20605L39.9917 8.51995L31.8602 11.4455L27.4248 7.05717L34.8171 1.20605Z" fill="#A6DEF2"/>
<path d="M20.7713 7.78857L25.4876 25.7661V25.7734L24.4748 35.5155L22.2497 34.1186L15.5967 12.1769L20.7713 7.78857Z" fill="#34BDEF"/>
<path d="M22.2505 34.1183L21.4447 34.7619L10.4228 20.2219L8.94434 10.7139L15.5974 12.1766L22.2505 34.1183Z" fill="#69D6F4"/>
<path d="M20.772 7.78856L15.5974 12.1769L8.94434 10.7141L12.6405 1.20605L20.772 7.78856Z" fill="#34BDEF"/>
<path d="M7.46458 25.3418L14.8569 34.8499L10.4215 32.6557L7.89334 35.157L0.811523 25.3418H7.46458Z" fill="#69D6F4"/>
<path d="M18.5543 37.0441L17.7411 39.0554L16.3366 35.5813L14.8581 34.85L7.46582 25.3419L10.4227 20.2222L21.4446 34.7622L18.5543 37.0441Z" fill="#34BDEF"/>
<path d="M10.4215 20.222L7.46458 25.3417H0.811523L3.02921 18.0278L10.4215 20.222Z" fill="#A6DEF2"/>
<path d="M17.0769 40.7013L18.2375 42.2372L11.9023 43.6268L11.1631 37.7757L16.3377 35.5815L17.7422 39.0556L17.0769 40.7013Z" fill="#69D6F4"/>
<path d="M14.8571 34.8499L16.3355 35.5813L11.1609 37.7755L5.98633 37.0441L7.89354 35.1571L10.4217 32.6558L14.8571 34.8499Z" fill="#A6DEF2"/>
<path d="M11.1609 37.7753L11.9002 43.6265L10.4217 45.0892H8.20401L5.98633 37.0439L11.1609 37.7753Z" fill="#34BDEF"/>
<path d="M21.5106 39.9695L22.989 43.6264H19.2929L18.2358 42.2368L17.0752 40.7009L17.7405 39.0553L18.5537 37.0439L21.5106 39.9695Z" fill="#A6DEF2"/>
<path d="M30.5801 39.3628L29.6413 43.6268H22.9882L21.5098 39.9699L26.2334 36.6274L28.2441 37.8927L30.5801 39.3628Z" fill="#34BDEF"/>
<path d="M24.4759 35.5151L26.2353 36.6268L21.5116 39.9693L18.5547 37.0437L21.4451 34.7618L22.2508 34.1182L24.4759 35.5151Z" fill="#69D6F4"/>
<path d="M37.0329 29.7302L32.5975 43.6266H29.6406L30.5794 39.3626L33.3368 26.8047L37.0329 29.7302Z" fill="#69D6F4"/>
<path d="M41.4705 22.416L45.1667 30.4613L37.0352 29.7299L41.4705 22.416Z" fill="#69D6F4"/>
<path d="M45.1655 30.4614L36.2948 45.0892L32.5986 43.6264L37.034 29.73L45.1655 30.4614Z" fill="#34BDEF"/>
<path d="M37.8028 24.3981L41.4694 22.416L37.034 29.7299L33.3379 26.8044L37.8028 24.3981Z" fill="#A6DEF2"/>
<path d="M8.47839 10.5605L8.9441 10.7141L8.47839 10.8677C7.37694 11.2334 6.51204 12.0891 6.14243 13.1789L5.98719 13.6397L5.83195 13.1789C5.46234 12.0891 4.59744 11.2334 3.49599 10.8677L3.03027 10.7141L3.49599 10.5605C4.59744 10.1948 5.46234 9.33912 5.83195 8.24935L5.98719 7.78857L6.14243 8.24935C6.51204 9.33912 7.37694 10.1948 8.47839 10.5605Z" fill="#31A8F2"/>
<path d="M41.743 17.4502C40.6416 17.8159 39.7767 18.6717 39.4071 19.7614L39.2518 20.2222L39.0966 19.7614C38.9783 19.4104 38.8009 19.0739 38.5791 18.7814C38.143 18.167 37.5073 17.6989 36.7606 17.4502L36.2949 17.2967L36.7606 17.1431C37.8621 16.7774 38.727 15.9216 39.0966 14.8319L39.141 14.7075V14.6929L39.2518 14.3711L39.4071 14.8319C39.7767 15.9216 40.6416 16.7774 41.743 17.1431L42.2088 17.2967L41.743 17.4502Z" fill="#31A8F2"/>
<path d="M41.8137 21.3975L38.7334 23.06L38.9352 21.5943L39.2523 22.5348L40.1083 19.994C40.4011 19.1251 41.1004 18.4332 41.9786 18.1436L44.5459 17.2966L41.9786 16.4489C41.1004 16.1593 40.4011 15.4674 40.1083 14.5985L39.9605 14.159L40.7633 8.33418L34.9707 0.147741L26.7209 6.67758L25.1685 21.6542L21.4266 7.3746L12.317 0L8.51666 9.77575C7.73529 9.45175 7.11286 8.8169 6.84304 8.01676L5.98702 5.47591L5.13099 8.01676C4.83825 8.88565 4.13894 9.57754 3.26074 9.86717L0.692658 10.7141L3.26148 11.5611C4.13968 11.8507 4.83825 12.5419 5.13099 13.4115L5.98702 15.9523L6.84304 13.4115C7.09364 12.6684 7.65102 12.0716 8.35329 11.7286L9.51314 19.1887L2.53482 17.1174L0 25.4758L6.93101 35.076L5.16056 36.8276L7.63993 45.8208H10.7284L12.2712 44.2944L17.9322 43.0503L18.9235 44.358H32.4573L36.6059 46L46 30.5084L41.8137 21.3975ZM5.98702 11.8624C5.6758 11.4126 5.28105 11.022 4.82643 10.7141C5.28105 10.4055 5.67506 10.0156 5.98702 9.56584C6.29823 10.0156 6.69298 10.4055 7.1476 10.7141C6.69298 11.022 6.29897 11.4126 5.98702 11.8624ZM34.6684 26.9202L39.4379 24.3465L36.8365 28.6361L34.6684 26.9202ZM41.3798 23.9874L43.9679 29.6198L38.2751 29.1078L41.3798 23.9874ZM40.4129 17.2966C39.9583 17.6045 39.5643 17.9951 39.2523 18.4449C38.9411 17.9951 38.5464 17.6045 38.0917 17.2966C38.5464 16.988 38.9404 16.5982 39.2523 16.1483C39.5635 16.5982 39.9583 16.988 40.4129 17.2966ZM38.8332 8.15865L32.05 10.5993L28.5313 7.11788L34.6632 2.26438L38.8332 8.15865ZM28.0013 8.66184L31.0779 11.7059L27.6693 36.6638L25.2558 35.144L28.0013 8.66184ZM21.5907 39.0145L19.6605 37.1048L22.2988 35.016L24.9165 36.6638L21.5907 39.0145ZM11.0611 37.0229L7.55566 36.527L10.5688 33.5459L14.5806 35.5309L11.0611 37.0229ZM15.3397 34.2707L8.35181 25.2819L10.5067 21.5511L20.4212 34.6298L17.9403 36.5929L17.7408 37.0858L16.918 35.0511L15.3397 34.2707ZM15.0137 12.7979L21.2107 33.2351L11.1247 19.9304L9.8384 11.6605L15.0137 12.7979ZM24.7353 25.8297L23.8608 34.2663L22.8791 33.6483L16.4434 12.4226L20.3532 9.10726L24.7353 25.8297ZM12.9631 2.41212L19.6206 7.801L15.3967 11.3833L9.94189 10.1839L12.9631 2.41212ZM3.52538 18.9386L9.31872 20.6581L7.03672 24.6105H1.80594L3.52538 18.9386ZM2.24873 26.0733H7.10177L12.3096 32.7714L10.2768 31.7657L7.99107 34.0272L2.24873 26.0733ZM10.1163 44.358H8.76947L6.9968 37.9255L10.4985 38.4199L11.1232 43.3619L10.1163 44.358ZM12.5336 42.738L11.9644 38.2305L15.9319 36.5483L16.9453 39.0555L16.2357 40.8108L16.9594 41.7653L12.5336 42.738ZM17.916 40.5914L18.8237 38.346L20.8803 40.3807L21.8974 42.8953H19.6628L17.916 40.5914ZM29.0465 42.8953H23.4897L22.4127 40.2308L26.2611 37.5108L29.7473 39.7057L29.0465 42.8953ZM29.0436 37.529L32.5327 11.9816L39.0934 9.62143L38.4155 14.5415L38.3963 14.5993C38.1036 15.4682 37.4042 16.16 36.526 16.4497L33.958 17.2966L36.5268 18.1436C37.028 18.3089 37.4589 18.6153 37.8012 19.0008L37.1219 23.9296L32.6887 26.322L30.0829 38.1822L29.0436 37.529ZM33.8072 28.1124L36.1926 30.0009L32.0581 42.8953H30.559L33.8072 28.1124ZM35.9857 44.1788L33.5107 43.1995L37.5602 30.5121L43.9265 31.0848L35.9857 44.1788Z" fill="black"/>
<path d="M22.9883 0.474609H24.4667V3.40017H22.9883V0.474609Z" fill="black"/>
<path d="M20.0322 3.3999H22.9891V4.86268H20.0322V3.3999Z" fill="black"/>
<path d="M24.4678 3.3999H27.4247V4.86268H24.4678V3.3999Z" fill="black"/>
<path d="M22.9883 4.86279H24.4667V7.78835H22.9883V4.86279Z" fill="black"/>
</svg>
