<svg preserveAspectRatio="none" width="100%" height="100%" overflow="visible" style="display: block;" viewBox="0 0 42 42" fill="none" xmlns="http://www.w3.org/2000/svg">
<path id="Vector" d="M4.02637 0.5C4.49056 0.504035 4.94946 0.600961 5.37598 0.78418C5.80239 0.967396 6.18832 1.23355 6.51074 1.56738L21 16.0566L35.4775 1.5791C36.1368 0.942554 37.0201 0.590669 37.9365 0.598633C38.853 0.606684 39.7298 0.973967 40.3779 1.62207C41.026 2.27018 41.3933 3.14696 41.4014 4.06348C41.4093 4.9799 41.0574 5.86316 40.4209 6.52246L25.9434 21L40.4326 35.4893C40.7664 35.8117 41.0326 36.1976 41.2158 36.624C41.399 37.0505 41.496 37.5094 41.5 37.9736C41.504 38.4378 41.415 38.8985 41.2393 39.3281C41.0635 39.7576 40.8037 40.1474 40.4756 40.4756C40.1474 40.8037 39.7576 41.0635 39.3281 41.2393C38.8985 41.415 38.4378 41.504 37.9736 41.5C37.5094 41.496 37.0505 41.399 36.624 41.2158C36.1976 41.0326 35.8117 40.7664 35.4893 40.4326L21 25.9434L6.51074 40.4326C6.18832 40.7664 5.8024 41.0326 5.37598 41.2158C4.94945 41.399 4.49055 41.496 4.02637 41.5C3.56217 41.504 3.10152 41.415 2.67188 41.2393C2.24239 41.0635 1.85256 40.8037 1.52441 40.4756C1.19627 40.1474 0.93652 39.7576 0.760742 39.3281C0.584962 38.8985 0.495966 38.4378 0.5 37.9736C0.504035 37.5094 0.600961 37.0505 0.78418 36.624C0.967396 36.1976 1.23355 35.8117 1.56738 35.4893L16.0566 21L1.56738 6.51074L1.44531 6.38672C1.1682 6.09107 0.944493 5.74909 0.78418 5.37598C0.600961 4.94946 0.504035 4.49056 0.5 4.02637C0.495966 3.56217 0.584962 3.10152 0.760742 2.67188C0.93652 2.24239 1.19627 1.85256 1.52441 1.52441C1.85256 1.19627 2.24239 0.93652 2.67188 0.760742C3.10152 0.584962 3.56217 0.495966 4.02637 0.5Z" fill="var(--fill-0, white)" stroke="var(--stroke-0, #0D5ED5)"/>
</svg>
