<svg width="52" height="52" viewBox="0 0 52 52" fill="none" xmlns="http://www.w3.org/2000/svg">
<circle cx="26" cy="26" r="26" fill="#0D5ED5"/>
<path d="M23.125 15.5625C23.125 13.595 21.53 12 19.5625 12C17.595 12 16 13.595 16 15.5625V36.4375C16 38.405 17.595 40 19.5625 40C21.53 40 23.125 38.405 23.125 36.4375V15.5625ZM27.875 36.4375C27.875 38.405 29.47 40 31.4375 40C33.405 40 35 38.405 35 36.4375V15.5625C35 13.595 33.405 12 31.4375 12C29.47 12 27.875 13.595 27.875 15.5625V36.4375Z" fill="white"/>
</svg>
