<svg preserveAspectRatio="none" width="100%" height="100%" overflow="visible" style="display: block;" viewBox="0 0 92 118" fill="none" xmlns="http://www.w3.org/2000/svg">
<g id="wise_mhuw4en3sblt 1" clip-path="url(#clip0_0_4)">
<path id="Vector" d="M19.5951 32.0107H19.5755C16.3321 32.0107 13.7031 35.3827 13.7031 39.5426C13.7031 43.7026 16.3321 47.0746 19.5755 47.0746H46.001V32.0107H19.5951Z" fill="var(--fill-0, #FFCDC1)"/>
<path id="Vector_2" d="M72.4253 32.0107H72.4057H46V47.0746H72.4255C75.6689 47.0746 78.2979 43.7026 78.2979 39.5426C78.2979 35.3827 75.6685 32.0107 72.4253 32.0107Z" fill="var(--fill-0, #FFAB97)"/>
<path id="Vector_3" d="M86.1278 75.9467C86.1278 70.4005 82.6225 65.9043 78.2981 65.9043L72.4258 87.2447L78.2981 108.585H86.1278V75.9467Z" fill="var(--fill-0, #7F7774)"/>
<path id="Vector_4" d="M13.7026 65.9043C9.37823 65.9043 5.87289 70.4005 5.87289 75.9467V108.585H78.2981V65.9043H13.7026Z" fill="var(--fill-0, #A99E9B)"/>
<path id="Vector_5" d="M69.1539 16.9468H61.3242L66.5529 116.117C69.7963 116.117 72.4253 112.745 72.4253 108.585V33.266C72.4251 27.3533 71.2374 21.791 69.1539 16.9468Z" fill="var(--fill-0, #FFF3D4)"/>
<path id="Vector_6" d="M61.3242 16.9468H22.8454C20.7619 21.7908 19.5742 27.3533 19.5742 33.2658V108.585C19.5742 112.745 22.2032 116.117 25.4466 116.117C27.6582 116.117 29.5835 114.548 30.5849 112.231C31.5863 114.548 33.5117 116.117 35.7232 116.117C37.9348 116.117 39.8602 114.548 40.8616 112.231C41.863 114.548 43.7883 116.117 45.9999 116.117C48.2115 116.117 50.1368 114.548 51.1382 112.231C52.1396 114.548 54.065 116.117 56.2766 116.117C58.4882 116.117 60.4135 114.548 61.4149 112.231C62.4163 114.548 64.3417 116.117 66.5532 116.117V33.266L61.3242 16.9468Z" fill="var(--fill-0, white)"/>
<path id="Vector_7" d="M46 6.90436L60.6808 40.7979H66.5532V33.266C66.553 18.7069 57.3508 6.90436 46 6.90436Z" fill="var(--fill-0, #FFAB97)"/>
<path id="Vector_8" d="M46.0004 6.90437C34.6493 6.90437 25.4473 18.7069 25.4473 33.266V40.798H60.6812V33.266C60.6812 18.7069 54.1083 6.90437 46.0004 6.90437Z" fill="var(--fill-0, #FFCDC1)"/>
<g id="Group">
<path id="Vector_9" d="M31.3197 67.7872C30.5087 67.7872 29.8516 66.9444 29.8516 65.9043V63.3935C29.8516 62.3534 30.5087 61.5106 31.3197 61.5106C32.1306 61.5106 32.7877 62.3534 32.7877 63.3935V65.9043C32.7877 66.9444 32.1304 67.7872 31.3197 67.7872Z" fill="var(--fill-0, #FFD159)"/>
<path id="Vector_10" d="M60.681 87.8723C59.87 87.8723 59.2129 87.0294 59.2129 85.9893V83.4786C59.2129 82.4385 59.87 81.5957 60.681 81.5957C61.4919 81.5957 62.149 82.4385 62.149 83.4786V85.9893C62.149 87.0294 61.4917 87.8723 60.681 87.8723Z" fill="var(--fill-0, #FFD159)"/>
<path id="Vector_11" d="M54.8079 95.4039C53.997 95.4039 53.3399 94.5611 53.3399 93.521V91.0103C53.3399 89.9702 53.997 89.1274 54.8079 89.1274C55.6189 89.1274 56.276 89.9702 56.276 91.0103V93.521C56.276 94.5611 55.6187 95.4039 54.8079 95.4039Z" fill="var(--fill-0, #FFD159)"/>
</g>
<path id="Vector_12" d="M78.2982 64.0211C77.4872 64.0211 76.8301 64.8639 76.8301 65.904C76.8301 66.9441 77.4872 67.787 78.2982 67.787C81.806 67.787 84.6598 71.4473 84.6598 75.9465V106.702H73.8938V48.7678C77.2403 47.8932 79.7662 44.0893 79.7662 39.5424C79.7662 34.9568 77.1965 31.1284 73.7939 30.2969C73.468 25.3024 72.327 20.4239 70.4401 16.0371C70.1817 15.4365 69.6892 15.0639 69.1546 15.0639H62.8244C58.9661 9.20653 53.2871 5.38444 46.9181 5.04773L45.3561 1.04104C44.9935 0.111096 44.1121 -0.26572 43.3864 0.198904C42.6613 0.664219 42.3674 1.7949 42.7298 2.7253L43.6855 5.17725C42.873 5.28672 42.0738 5.45427 41.2896 5.67414L39.4836 1.04104C39.1208 0.111096 38.2396 -0.26572 37.5138 0.198904C36.7888 0.664219 36.4948 1.7949 36.8573 2.7253L38.4239 6.74397C34.8009 8.45197 31.6228 11.3494 29.176 15.0639H22.8458C22.3112 15.0639 21.8187 15.4368 21.5605 16.0371C19.6739 20.4232 18.5329 25.3006 18.2066 30.2939C14.8109 31.1183 12.234 34.9505 12.234 39.5424C12.234 44.0891 14.7599 47.8929 18.1064 48.7678V93.521C18.1064 94.5611 18.7635 95.404 19.5744 95.404C20.3853 95.404 21.0424 94.5611 21.0424 93.521V33.2663C21.0424 28.2513 21.9693 23.2838 23.7297 18.8302H27.0796C25.1116 23.0577 23.9785 27.995 23.9785 33.2663V40.7982C23.9785 41.8383 24.6356 42.6811 25.4466 42.6811H66.5527C67.3636 42.6811 68.0208 41.8383 68.0208 40.7982V33.2663C68.0208 27.995 66.888 23.0574 64.9197 18.8302H68.2696C70.0298 23.2838 70.9568 28.2513 70.9568 33.2663V108.585C70.9568 111.7 68.981 114.234 66.5525 114.234C64.9526 114.234 63.4754 113.117 62.6984 111.319C62.4397 110.72 61.9479 110.349 61.4144 110.349C60.8809 110.349 60.3893 110.72 60.1303 111.319C59.353 113.117 57.876 114.234 56.2762 114.234C54.6765 114.234 53.1991 113.117 52.4221 111.319C52.1634 110.72 51.6716 110.349 51.1381 110.349C50.6046 110.349 50.113 110.72 49.854 111.319C49.0767 113.117 47.5997 114.234 45.9999 114.234C44.4002 114.234 42.9228 113.117 42.1458 111.319C41.8871 110.72 41.3953 110.349 40.8618 110.349C40.3283 110.349 39.8366 110.72 39.5777 111.319C38.8004 113.117 37.3234 114.234 35.7236 114.234C34.1239 114.234 32.6465 113.117 31.8695 111.319C31.6107 110.72 31.1189 110.349 30.5855 110.349C30.052 110.349 29.5603 110.72 29.3014 111.319C28.5241 113.117 27.0471 114.234 25.4473 114.234C23.0188 114.234 21.043 111.7 21.043 108.585V101.053C21.043 100.013 20.3859 99.1703 19.5749 99.1703C18.764 99.1703 18.1069 100.013 18.1069 101.053V106.702H7.34058V75.9469C7.34058 71.4477 10.1944 67.7874 13.7022 67.7874C14.5132 67.7874 15.1703 66.9446 15.1703 65.9045C15.1703 64.8644 14.5132 64.0216 13.7022 64.0216C8.57557 64.0216 4.40431 69.3714 4.40431 75.9471V108.585C4.40431 109.625 5.06143 110.468 5.87236 110.468H18.2541C18.936 114.76 21.9017 118 25.4468 118C27.3938 118 29.2313 117.008 30.5851 115.307C31.9389 117.008 33.7763 118 35.7234 118C37.6705 118 39.508 117.008 40.8618 115.307C42.2155 117.008 44.053 118 46.0001 118C47.9472 118 49.7847 117.008 51.1384 115.307C52.4922 117.008 54.3297 118 56.2768 118C58.2239 118 60.0613 117.008 61.4151 115.307C62.7689 117.008 64.6063 118 66.5534 118C70.0983 118 73.064 114.76 73.7461 110.468H86.1278C86.9388 110.468 87.5959 109.625 87.5959 108.585V75.9469C87.5959 69.3712 83.4248 64.0211 78.2982 64.0211ZM15.1706 39.5426C15.1706 37.0879 16.3981 34.9948 18.1067 34.2176V44.8678C16.3981 44.0904 15.1706 41.9973 15.1706 39.5426ZM65.0854 38.9148H26.9153V33.2658C26.9153 19.7698 35.4747 8.78984 45.9967 8.78707C56.5274 8.79168 65.0854 19.7707 65.0854 33.2658V38.9148ZM76.8301 39.5426C76.8301 41.9973 75.6027 44.0904 73.894 44.8676V34.2176C75.6025 34.9948 76.8301 37.0879 76.8301 39.5426Z" fill="var(--fill-0, black)"/>
<path id="Vector_13" d="M46.0012 53.1363C48.0683 53.1363 49.922 51.4583 50.6141 48.9607C50.8858 47.9807 50.4867 46.904 49.7225 46.5557C48.9589 46.2066 48.1192 46.7191 47.8477 47.6991C47.5704 48.6989 46.8285 49.3705 46.001 49.3705C45.1736 49.3705 44.4316 48.6989 44.1544 47.6991C43.8829 46.7191 43.0425 46.2068 42.2795 46.5557C41.5155 46.904 41.1164 47.9807 41.3879 48.9607C42.0802 51.4583 43.9341 53.1363 46.0012 53.1363Z" fill="var(--fill-0, black)"/>
<path id="Vector_14" d="M40.5203 30.1277H37.1927C36.3817 30.1277 35.7246 30.9706 35.7246 32.0107C35.7246 33.0508 36.3817 33.8936 37.1927 33.8936H39.1358C39.3372 34.6249 39.8811 35.149 40.5203 35.149C41.3312 35.149 41.9883 34.3061 41.9883 33.266V32.0107C41.9883 30.9706 41.331 30.1277 40.5203 30.1277Z" fill="var(--fill-0, black)"/>
<path id="Vector_15" d="M54.8093 30.1277H51.4817C50.6708 30.1277 50.0137 30.9706 50.0137 32.0107V33.266C50.0137 34.3061 50.6708 35.149 51.4817 35.149C52.121 35.149 52.6648 34.6251 52.8662 33.8936H54.8093C55.6203 33.8936 56.2774 33.0508 56.2774 32.0107C56.2774 30.9706 55.6201 30.1277 54.8093 30.1277Z" fill="var(--fill-0, black)"/>
</g>
<defs>
<clipPath id="clip0_0_4">
<rect width="92" height="118" fill="white"/>
</clipPath>
</defs>
</svg>
