<svg preserveAspectRatio="none" width="100%" height="100%" overflow="visible" style="display: block;" viewBox="0 0 87.9872 118" fill="none" xmlns="http://www.w3.org/2000/svg">
<g id="Group">
<g id="Group_2">
<path id="Vector" d="M46.836 30.1725C44.9836 30.9989 43.0049 30.9989 41.1523 30.1725V43.3092H46.836V30.1725Z" fill="var(--fill-0, #FBC700)"/>
</g>
<g id="Group_3">
<path id="Vector_2" d="M52.0729 27.2545C51.5356 27.2545 51.028 26.8397 50.8189 26.1598C50.5457 25.2718 50.8855 24.2679 51.578 23.9176C55.7348 21.8146 60.3558 18.1914 61.2731 16.3163C61.5755 15.6979 61.7352 14.9872 61.7352 14.2609V8.52965H54.1077C53.3634 8.52965 52.76 7.75597 52.76 6.80113C52.76 5.8463 53.3634 5.07262 54.1077 5.07262H62.1843C63.4229 5.07262 64.4305 6.36509 64.4305 7.95371V14.2609C64.4305 15.638 64.1281 16.9839 63.5562 18.1536C61.9363 21.4647 55.9559 25.4189 52.5669 27.1335C52.4046 27.2156 52.2373 27.2545 52.0729 27.2545Z" fill="var(--fill-0, #FFEB7E)"/>
</g>
<g id="Group_4">
<path id="Vector_3" d="M35.9143 27.2545C35.7497 27.2545 35.5824 27.2156 35.4202 27.1335C32.0311 25.4191 26.0509 21.4647 24.4312 18.1538C23.8591 16.9842 23.5569 15.638 23.5569 14.2609V7.95371C23.5569 6.36509 24.5645 5.07262 25.8031 5.07262H33.8797C34.624 5.07262 35.2274 5.8463 35.2274 6.80113C35.2274 7.75597 34.624 8.52965 33.8797 8.52965H26.2522V14.2609C26.2522 14.9872 26.4121 15.6979 26.7145 16.3165C27.6318 18.1916 32.2528 21.8143 36.4095 23.9176C37.1019 24.2679 37.4417 25.2718 37.1687 26.1598C36.9592 26.8397 36.4516 27.2545 35.9143 27.2545Z" fill="var(--fill-0, #FFEB7E)"/>
</g>
<path id="Vector_4" d="M9.28516 81.3174H30.6987V116.271H9.28516V81.3174Z" fill="var(--fill-0, #8659B9)"/>
<path id="Vector_5" d="M2.49414 81.3174H9.46584V116.271H2.49414V81.3174Z" fill="var(--fill-0, #734A9B)"/>
<path id="Vector_6" d="M64.7773 81.3174H85.4939V116.271H64.7773V81.3174Z" fill="var(--fill-0, #8659B9)"/>
<path id="Vector_7" d="M57.2871 81.3174H65.1357V116.271H57.2871V81.3174Z" fill="var(--fill-0, #734A9B)"/>
<path id="Vector_8" d="M8.8534 74.6737C8.51307 74.8959 8.2793 75.3485 8.2793 75.8719V80.7655C8.2793 81.2889 8.51289 81.7413 8.8534 81.9637H30.7V74.6737H8.8534Z" fill="var(--fill-0, #AC80DD)"/>
<path id="Vector_9" d="M8.31935 80.6707V75.9667C8.31935 75.2527 8.77073 74.6737 9.3274 74.6737H2.3557C1.79903 74.6737 1.34766 75.2527 1.34766 75.9667V80.6707C1.34766 81.3847 1.79903 81.9637 2.3557 81.9637H9.3274C8.77073 81.9637 8.31935 81.385 8.31935 80.6707Z" fill="var(--fill-0, #9D66D5)"/>
<path id="Vector_10" d="M85.6319 74.6737H64.7773V81.9637H85.6321C86.1887 81.9637 86.6401 81.385 86.6401 80.6707V75.9666C86.6399 75.2526 86.1885 74.6737 85.6319 74.6737Z" fill="var(--fill-0, #AC80DD)"/>
<path id="Vector_11" d="M57.2871 74.6737H65.1355V81.9637H57.2871V74.6737Z" fill="var(--fill-0, #9D66D5)"/>
<path id="Vector_12" d="M50.5749 42.8218H37.4128C35.7421 42.8218 34.375 44.5752 34.375 46.7181V55.9219H53.6127V46.7181C53.6127 44.5752 52.2456 42.8218 50.5749 42.8218Z" fill="var(--fill-0, #DD8858)"/>
<path id="Vector_13" d="M46.3972 42.8218H37.4128C35.7421 42.8218 34.375 44.5752 34.375 46.7181V55.9219H43.3594V46.7181C43.3594 44.5752 44.7264 42.8218 46.3972 42.8218Z" fill="var(--fill-0, #CB6C35)"/>
<path id="Vector_14" d="M32.4414 1.72852V15.7565C32.4414 22.738 35.9045 28.6818 40.7475 30.9169C42.8478 31.8863 45.1381 31.8863 47.2383 30.9169C52.0814 28.6818 55.5444 22.738 55.5444 15.7565V1.72852H32.4414Z" fill="var(--fill-0, #FFD500)"/>
<path id="Vector_15" d="M41.1512 15.7565V1.72852H32.4414V15.7565C32.4414 22.738 35.9045 28.6818 40.7476 30.9169C42.8478 31.8863 45.1381 31.8863 47.2385 30.9169C47.6175 30.742 47.9869 30.542 48.3479 30.3228C44.0947 27.7427 41.1512 22.1918 41.1512 15.7565Z" fill="var(--fill-0, #FBC700)"/>
<path id="Vector_16" d="M37.4922 61.8043H57.8276V116.271H37.4922V61.8043Z" fill="var(--fill-0, #8659B9)"/>
<path id="Vector_17" d="M30.1604 61.8043H37.6711V116.271H30.1604V61.8043Z" fill="var(--fill-0, #734A9B)"/>
<g id="Group_5">
<path id="Vector_18" d="M86.6396 118H1.34766C0.603391 118 0 117.226 0 116.271C0 115.317 0.603391 114.543 1.34766 114.543H86.6396C87.3838 114.543 87.9872 115.317 87.9872 116.271C87.9872 117.226 87.3838 118 86.6396 118Z" fill="var(--fill-0, #9D66D5)"/>
</g>
<g id="Group_6">
<path id="Vector_19" d="M43.9941 87.3587C43.2499 87.3587 42.6465 86.5851 42.6465 85.6302V74.9994C42.6465 74.0446 43.2499 73.2709 43.9941 73.2709C44.7384 73.2709 45.3418 74.0446 45.3418 74.9994V85.6302C45.3418 86.5848 44.7384 87.3587 43.9941 87.3587Z" fill="var(--fill-0, #734A9B)"/>
</g>
<g id="Group_7">
<path id="Vector_20" d="M71.6601 106.572C70.9158 106.572 70.3124 105.798 70.3124 104.843V94.2122C70.3124 93.2573 70.9158 92.4837 71.6601 92.4837C72.4044 92.4837 73.0078 93.2573 73.0078 94.2122V104.843C73.0078 105.798 72.4044 106.572 71.6601 106.572Z" fill="var(--fill-0, #734A9B)"/>
</g>
<g id="Group_8">
<path id="Vector_21" d="M76.8362 106.572C76.0919 106.572 75.4885 105.798 75.4885 104.843V94.2122C75.4885 93.2573 76.0919 92.4837 76.8362 92.4837C77.5804 92.4837 78.1838 93.2573 78.1838 94.2122V104.843C78.1838 105.798 77.5806 106.572 76.8362 106.572Z" fill="var(--fill-0, #734A9B)"/>
</g>
<g id="Group_9">
<path id="Vector_22" d="M66.4844 106.572C65.7401 106.572 65.1367 105.798 65.1367 104.843V94.2122C65.1367 93.2573 65.7401 92.4836 66.4844 92.4836C67.2286 92.4836 67.832 93.2573 67.832 94.2122V104.843C67.832 105.798 67.2286 106.572 66.4844 106.572Z" fill="var(--fill-0, #734A9B)"/>
</g>
<g id="Group_10">
<path id="Vector_23" d="M18.3418 106.572C17.5975 106.572 16.9941 105.798 16.9941 104.843V94.2122C16.9941 93.2573 17.5975 92.4836 18.3418 92.4836C19.0861 92.4836 19.6895 93.2573 19.6895 94.2122V104.843C19.6895 105.798 19.0861 106.572 18.3418 106.572Z" fill="var(--fill-0, #734A9B)"/>
</g>
<g id="Group_11">
<path id="Vector_24" d="M13.1659 106.572C12.4216 106.572 11.8182 105.798 11.8182 104.843V94.2122C11.8182 93.2573 12.4216 92.4837 13.1659 92.4837C13.9101 92.4837 14.5135 93.2573 14.5135 94.2122V104.843C14.5135 105.798 13.9101 106.572 13.1659 106.572Z" fill="var(--fill-0, #734A9B)"/>
</g>
<g id="Group_12">
<path id="Vector_25" d="M56.3751 3.45703H31.6113C30.8671 3.45703 30.2637 2.68335 30.2637 1.72852C30.2637 0.773684 30.8671 0 31.6113 0H56.375C57.1192 0 57.7226 0.773684 57.7226 1.72852C57.7226 2.68335 57.1194 3.45703 56.3751 3.45703Z" fill="var(--fill-0, #FFEB7E)"/>
</g>
<path id="Vector_26" d="M57.9657 55.4609H36.8871C36.6219 55.7145 36.4492 56.1187 36.4492 56.5757V61.6361C36.4492 62.0931 36.6219 62.4974 36.8871 62.7509H57.9657C58.5224 62.7509 58.9738 62.1722 58.9738 61.458V56.7539C58.9738 56.0399 58.5224 55.4609 57.9657 55.4609Z" fill="var(--fill-0, #AC80DD)"/>
<path id="Vector_27" d="M36.5246 61.458V56.7539C36.5246 56.0399 36.9758 55.4609 37.5327 55.4609H30.0217C29.465 55.4609 29.0137 56.0399 29.0137 56.7539V61.458C29.0137 62.172 29.4649 62.7509 30.0217 62.7509H37.5327C36.976 62.7509 36.5246 62.172 36.5246 61.458Z" fill="var(--fill-0, #9D66D5)"/>
</g>
</svg>
