<svg preserveAspectRatio="none" width="100%" height="100%" overflow="visible" style="display: block;" viewBox="0 0 91.5549 118" fill="none" xmlns="http://www.w3.org/2000/svg">
<g id="Group">
<path id="Vector" d="M10.891 21.1041C11.1757 21.1703 11.4644 20.9845 11.6996 20.7584C12.0019 20.4678 19.0865 13.5469 17.7638 5.54864C16.8118 -0.206247 10.6474 -1.68403 8.1655 3.28725C4.28402 0.0115483 -0.834987 4.6279 0.115393 10.3733C1.13406 16.5322 6.46725 20.0748 10.891 21.1041ZM7.22033 15.8837C4.66604 14.2344 3.16276 12.1392 2.75216 9.65588C2.75216 6.40784 5.25812 4.30478 7.52042 7.33387C8.3991 8.51043 9.91838 8.30024 10.0381 6.64868C10.3027 2.99455 14.5267 2.63317 15.1272 6.2661C15.8516 10.6458 12.9366 14.8924 10.5563 17.4965C9.8386 17.2529 8.55992 16.7486 7.22033 15.8837Z" fill="var(--fill-0, #060606)"/>
<path id="Vector_2" d="M33.005 14.9397C36.0328 15.0754 39.8765 13.8184 41.3543 10.0933C42.3221 7.65354 41.5378 4.59241 39.6462 3.36308C38.8318 2.83414 37.9321 2.69724 37.0874 2.92334C36.731 1.91709 36.1133 1.06758 35.2989 0.538412C33.3823 -0.706597 31.0282 0.281206 30.0516 2.74241C27.9593 8.01699 31.8539 14.0683 32.0207 14.3234C32.2659 14.6981 32.6237 14.9222 33.005 14.9397ZM32.4539 4.31008C33.0461 2.81755 34.9473 3.54907 34.7203 5.25525C34.5029 6.8916 36.1113 7.9414 37.0144 6.75193C37.9195 5.55993 39.5856 6.92778 38.952 8.52565C38.0649 10.7617 35.2838 11.3833 33.7247 11.4759C32.9879 10.1152 31.4627 6.80886 32.4539 4.31008Z" fill="var(--fill-0, #060606)"/>
<path id="Vector_3" d="M91.2045 8.73698C90.3002 5.96395 87.7753 4.51889 85.5554 5.53642C83.8953 1.12404 78.7925 1.37848 77.3495 5.87521C75.2668 12.3731 80.3771 19.122 80.5955 19.406C80.8494 19.736 81.1951 19.9204 81.5548 19.9204C85.1114 19.9204 89.769 17.6645 91.2141 13.1561C91.6717 11.7285 91.6683 10.159 91.2045 8.73698ZM88.7212 11.8421C87.7232 14.9556 84.4342 16.0381 82.1106 16.3919C81.1185 14.8731 78.7218 10.6863 79.8424 7.18983C80.6659 4.91369 83.4789 5.60579 83.2966 8.24954C83.1823 9.90294 84.8521 10.7831 85.6771 9.504C86.9626 7.51249 89.4842 9.46159 88.7212 11.8421Z" fill="var(--fill-0, #060606)"/>
<path id="Vector_4" d="M51.2108 62.2996C51.177 61.3777 50.5844 60.6526 49.8647 60.6526H43.3053C42.5857 60.6526 41.993 61.3777 41.9593 62.2996C41.9427 62.7455 41.8487 66.7235 43.5732 69.0423C45.1617 71.178 48.0073 71.1605 49.593 69.0287C51.3207 66.7057 51.2273 62.7437 51.2108 62.2996ZM47.6396 66.6467C47.1007 67.367 46.0682 67.3842 45.5265 66.6603C45.0767 66.059 44.8478 65.027 44.7382 64.1097H48.4297C48.3194 65.0208 48.0894 66.0452 47.6396 66.6467Z" fill="var(--fill-0, #060606)"/>
<path id="Vector_5" d="M70.4849 13.1673C68.5647 12.9537 67.5273 13.9908 66.996 14.8979C66.069 16.4799 66.0343 18.795 66.2731 20.852C65.1809 20.6448 64.2281 21.4959 63.88 22.8103C63.0538 25.9274 67.4941 30.2372 68.932 31.9819C73.1763 44.7272 74.2862 59.8259 71.8239 71.4915C70.5323 77.6107 67.4576 83.0052 63.9914 85.2345C58.7082 88.6326 52.2753 84.4002 52.094 76.5891C54.1072 75.4904 55.9898 74.1698 57.0548 73.3841C61.9354 69.7834 62.9616 64.9375 62.9496 58.1391L64.0708 58.14C66.4338 58.14 68.2847 55.8574 68.2847 52.9433C68.2847 51.2616 67.6626 49.7633 66.6984 48.8027C67.1194 46.6037 67.3503 44.3742 67.3503 42.4045C67.3503 34.8453 65.3326 28.0733 61.7688 23.5169L63.308 21.48C64.1454 20.3719 63.4651 18.467 62.2651 18.5512L58.2415 18.8395L55.8811 13.9572C55.2531 12.658 53.6617 13.0173 53.4168 14.5131L52.9811 17.1743C51.3163 16.4098 49.3161 15.8244 46.5681 15.8244C40.5079 15.8244 34.7636 19.1972 30.8079 25.0781C29.7062 26.7159 31.6965 29.0487 32.8486 27.3365C36.2918 22.2175 41.2924 19.2815 46.5681 19.2815C49.869 19.2815 51.8404 20.2348 53.429 21.1281C54.3879 21.6681 55.2612 20.6358 55.3636 19.4463C56.3679 21.5238 56.9233 22.6123 58.9728 22.2495C58.3863 22.9633 58.3173 24.2219 58.9728 24.9214C62.5839 28.7754 64.6548 35.1477 64.6548 42.4045C64.6548 44.0225 64.4708 45.8593 64.1343 47.6971C60.0436 47.2424 57.2494 41.3898 56.5993 36.6333C56.4049 35.1857 54.9194 34.7038 54.2116 35.8584C51.8641 39.6889 48.9763 41.5377 47.0328 42.4055L47.9136 38.9488C48.3429 37.265 46.6035 35.9039 45.6425 37.2392C41.5839 42.8765 34.9201 46.9596 28.9582 47.7236C28.2054 43.3331 28.3584 38.7511 29.5617 34.5136C30.1391 32.4811 27.6329 31.2054 27.0292 33.3304C25.58 38.433 25.4436 43.9863 26.4686 49.2408C25.7286 50.1903 25.2706 51.4999 25.2706 52.9436C25.2706 55.8576 27.1215 58.1402 29.4845 58.1402L30.2787 58.1395C30.1657 64.914 31.3468 69.8268 36.1691 73.3843C37.2248 74.1631 39.0837 75.4676 41.0768 76.5602C40.9066 84.6115 34.1426 88.7432 28.7761 85.1635C24.8418 82.5387 22.4359 76.7969 21.349 71.5032C18.9313 59.7321 20.0319 44.6655 24.2142 32.0552C25.6792 30.2836 30.1696 25.9908 29.3262 22.8107C28.9759 21.489 28.0272 20.6452 26.9332 20.8527C27.1719 18.7957 27.1372 16.4806 26.2103 14.8986C25.6788 13.9915 24.6433 12.9551 22.7215 13.168C17.2936 13.7702 16.2577 24.0037 16.0764 26.7981C11.2671 40.4672 8.98131 53.0528 9.28211 64.2072C9.50852 72.5908 11.1295 80.0498 14.2383 87.0101C18.5219 96.6009 24.4672 104.564 26.7437 107.446V116.271C26.7437 117.226 27.3469 118 28.0913 118H65.0798C65.8242 118 66.4275 117.226 66.4275 116.271V107.445C72.016 100.368 77.3372 92.0936 80.5843 82.8657C81.2783 80.894 78.8532 79.3821 78.1276 81.4435C77.4633 83.3313 76.6849 85.1469 75.8436 86.9133C74.339 83.8828 72.5021 82.2165 71.1943 81.3439C72.7552 78.4377 73.8287 75.221 74.4255 72.3947C77.0649 59.89 75.8576 43.7288 71.2742 30.2181C70.8087 28.8456 69.1507 27.4423 68.3428 26.3282C69.3264 26.4151 70.0423 25.135 69.6953 23.9818C69.2236 22.4129 67.6387 16.3211 70.2527 16.6115C73.1904 16.9374 74.2927 23.8474 74.4652 27.4559C74.4754 27.6659 74.5149 27.8717 74.5827 28.0632C80.8079 45.6941 82.663 61.2196 80.0967 74.2087C79.6823 76.3056 82.2761 77.2498 82.7095 75.058C85.4155 61.362 83.5408 45.1677 77.1382 26.9221C76.9718 24.0965 75.9862 13.7776 70.4849 13.1673ZM64.0708 54.6825L62.9034 54.6815C62.8692 53.5025 62.8067 52.327 62.7109 51.1535H64.186C66.0859 51.1535 65.9355 54.6825 64.0708 54.6825ZM27.9663 52.9429C27.9663 51.9562 28.5957 51.1535 29.3696 51.1535H30.6048C30.4954 52.3231 30.4765 53.5066 30.4196 54.6815L29.485 54.6822C28.7535 54.6825 27.9663 54.1381 27.9663 52.9429ZM32.9696 58.6574C32.9696 55.8134 33.1424 52.9194 33.4292 50.1014C36.1346 49.0463 40.1904 47.0822 43.8465 43.7802C43.4124 45.0052 43.8724 46.745 45.1412 46.5641C45.3757 46.5307 50.3041 45.7687 54.6432 40.3932C55.6455 43.9091 57.3413 47.2375 59.8397 49.2754C60.1175 52.4096 60.2549 55.5027 60.2549 58.6576C60.2549 64.2353 60.2549 67.0351 55.7111 70.3873C52.8197 72.5203 48.702 75.0112 46.6123 75.0112C44.5231 75.0112 40.4049 72.5203 37.5134 70.3871C32.9696 67.0346 32.9696 64.2351 32.9696 58.6574ZM43.7094 77.8078C44.7529 78.2111 45.7532 78.4681 46.6123 78.4681C47.4567 78.4681 48.4374 78.2199 49.4617 77.8283C49.7833 81.5142 51.2415 84.9404 53.3593 87.1055C53.047 91.5451 50.129 95.0363 46.5857 95.0363C43.0503 95.0363 40.1372 91.5607 39.8139 87.1354C41.9143 84.9907 43.3871 81.5147 43.7094 77.8078ZM11.976 64.0876C11.6876 53.3948 13.926 41.2356 18.6294 27.9475C18.6959 27.7597 18.7356 27.5582 18.7467 27.3524C18.789 26.5684 18.9827 23.808 19.6966 21.2039C20.0029 20.0861 22.4996 14.3245 24.0557 16.974C24.7566 18.1686 24.145 21.8626 23.5114 23.9818C23.165 25.1332 23.8799 26.4176 24.8639 26.3282C24.0659 27.4287 22.3668 28.8323 21.9028 30.1997C19.741 36.5671 18.2815 43.7086 17.6824 50.8516C17.0445 58.4539 17.4115 65.8995 18.743 72.3834C19.0684 73.9672 19.9826 77.7474 21.8692 81.4101C20.5701 82.2992 18.789 83.9566 17.3234 86.9052C17.0697 86.3721 16.8197 85.8349 16.5772 85.2917C13.6917 78.8313 12.1866 71.8955 11.976 64.0876ZM74.1904 90.1871C70.0116 98.0289 65.2155 104.144 64.1425 105.476C63.8802 105.802 63.7321 106.25 63.7321 106.718V114.543H29.439V106.718C29.439 106.25 29.2909 105.802 29.0286 105.476C27.9553 104.144 23.1561 98.0259 18.9755 90.1784C20.4065 86.4618 22.4487 84.834 23.541 84.1949C27.1172 89.2917 32.2251 91.1671 37.3033 88.893C38.228 94.3739 42.0378 98.4936 46.5856 98.4936C51.1312 98.4936 54.9392 94.3778 55.8664 88.9011C60.8846 91.2724 65.9489 89.0117 69.4752 84.1117C70.5224 84.6871 72.6925 86.2908 74.1904 90.1871Z" fill="var(--fill-0, #060606)"/>
<path id="Vector_6" d="M44.0123 54.8459C44.0123 52.1254 42.2862 49.9122 40.1645 49.9122C38.0425 49.9122 36.3164 52.1254 36.3164 54.8459C36.3164 57.0091 39.0118 57.1075 39.0118 54.8459C39.0118 54.0316 39.5289 53.3692 40.1645 53.3692C40.8 53.3692 41.317 54.0316 41.317 54.8459C41.317 57.0091 44.0123 57.1075 44.0123 54.8459Z" fill="var(--fill-0, #060606)"/>
<path id="Vector_7" d="M50.5058 56.5744C51.2503 56.5744 51.8535 55.8005 51.8535 54.8459C51.8535 54.0316 52.3705 53.3693 53.006 53.3693C53.6416 53.3693 54.1588 54.0316 54.1588 54.8459C54.1588 57.0091 56.8541 57.1075 56.8541 54.8459C56.8541 52.1254 55.128 49.9122 53.006 49.9122C50.8843 49.9122 49.1582 52.1254 49.1582 54.8459C49.1582 55.8005 49.7616 56.5744 50.5058 56.5744Z" fill="var(--fill-0, #060606)"/>
</g>
</svg>
