<svg preserveAspectRatio="none" width="100%" height="100%" overflow="visible" style="display: block;" viewBox="0 0 51 49.9718" fill="none" xmlns="http://www.w3.org/2000/svg">
<path id="Vector" d="M3.50169 34.8709C3.17002 35.1959 2.94041 35.5959 2.83836 36.0209L0.0829828 46.8716C-0.146632 47.7216 0.108495 48.6217 0.746313 49.2467C1.23106 49.7218 1.89439 49.9718 2.55772 49.9718C2.76182 49.9718 2.96592 49.9718 3.17002 49.8968L14.2425 47.1716C14.7018 47.0716 15.11 46.8466 15.4161 46.5216L35.2352 27.0996C38.571 23.8307 38.571 18.4594 35.2352 15.1905C31.9924 12.0127 26.803 12.0139 23.5618 15.1933L3.50169 34.8709ZM45.0619 1.51884C42.9954 -0.506281 39.6022 -0.506281 37.5357 1.51884C35.0426 3.96195 35.0426 7.97627 37.5357 10.4194L40.3676 13.1946C42.8904 15.6668 46.9273 15.6668 49.4501 13.1945C51.5166 11.1694 51.5166 7.86923 49.4501 5.8191L45.0619 1.51884Z" fill="var(--fill-0, #8441CD)"/>
</svg>
