<svg width="193" height="137" viewBox="0 0 193 137" fill="none" xmlns="http://www.w3.org/2000/svg">
<g clip-path="url(#clip0_3321_2146)">
<rect width="193" height="137" rx="3" fill="#F93939"/>
<path d="M174.619 0H18.381C8.22943 0 0 8.17826 0 18.2667V118.733C0 128.822 8.22943 137 18.381 137H174.619C184.771 137 193 128.822 193 118.733V18.2667C193 8.17826 184.771 0 174.619 0Z" fill="#F93939"/>
<path fill-rule="evenodd" clip-rule="evenodd" d="M45.9521 100.467H193V137H45.9521V100.467Z" fill="#249F58"/>
<path fill-rule="evenodd" clip-rule="evenodd" d="M27.5714 0L45.9524 13.7L27.5714 27.4V0ZM27.5714 27.4L45.9524 41.1L27.5714 54.8V27.4ZM27.5714 54.8L45.9524 68.5L27.5714 82.2V54.8ZM27.5714 82.2L45.9524 95.9L27.5714 109.6V82.2ZM27.5714 109.6L45.9524 123.3L27.5714 137V109.6ZM18.381 0L0 13.7L18.381 27.4V0ZM18.381 27.4L0 41.1L18.381 54.8V27.4ZM18.381 54.8L0 68.5L18.381 82.2V54.8ZM18.381 82.2L0 95.9L18.381 109.6V82.2ZM18.381 109.6L0 123.3L18.381 137V109.6ZM18.381 0H27.5714V18.2667H18.381V0ZM18.381 118.733H27.5714V137H18.381V118.733ZM18.381 45.6667H27.5714V63.9333H18.381V45.6667ZM18.381 27.4H27.5714V36.5333H18.381V27.4ZM18.381 100.467H27.5714V109.6H18.381V100.467ZM18.381 73.0667H27.5714V91.3333H18.381V73.0667Z" fill="white"/>
</g>
<rect x="0.5" y="0.5" width="192" height="136" rx="2.5" stroke="black"/>
<defs>
<clipPath id="clip0_3321_2146">
<rect width="193" height="137" rx="3" fill="white"/>
</clipPath>
</defs>
</svg>
