<svg width="193" height="137" viewBox="0 0 193 137" fill="none" xmlns="http://www.w3.org/2000/svg">
<g clip-path="url(#clip0_3321_2139)">
<rect width="193" height="137" rx="3" fill="white"/>
<path fill-rule="evenodd" clip-rule="evenodd" d="M0 0H36.7619V36.5333H0V0ZM55.1429 0H91.9048V36.5333H55.1429V0ZM0 54.8H36.7619V91.3333H0V54.8ZM55.1429 54.8H91.9048V91.3333H55.1429V54.8ZM91.9048 0H193V18.2667H91.9048V0ZM91.9048 36.5333H193V54.8H91.9048V36.5333Z" fill="#1A47B8"/>
<path fill-rule="evenodd" clip-rule="evenodd" d="M0 73.0667H193V91.3333H0V73.0667ZM36.7619 73.0667H55.1429V91.3333H36.7619V73.0667ZM0 109.6H193V127.867H0V109.6Z" fill="#1A47B8"/>
</g>
<rect x="0.5" y="0.5" width="192" height="136" rx="2.5" stroke="black"/>
<defs>
<clipPath id="clip0_3321_2139">
<rect width="193" height="137" rx="3" fill="white"/>
</clipPath>
</defs>
</svg>
