<svg width="193" height="137" viewBox="0 0 193 137" fill="none" xmlns="http://www.w3.org/2000/svg">
<rect x="0.5" y="0.5" width="192" height="136" rx="2.5" fill="#03BCDB"/>
<rect x="0.5" y="0.5" width="192" height="136" rx="2.5" stroke="black"/>
<path d="M105.69 82.2001C118.379 82.2001 128.666 71.9773 128.666 59.3668C128.666 46.7563 118.379 36.5334 105.69 36.5334C93.0007 36.5334 82.7139 46.7563 82.7139 59.3668C82.7139 71.9773 93.0007 82.2001 105.69 82.2001Z" fill="#FFDA2C"/>
<path fill-rule="evenodd" clip-rule="evenodd" d="M73.5234 63.9333L82.7139 82.2L105.69 91.3333L128.666 82.2L137.857 63.9333V91.3333L105.69 100.467L73.5234 91.3333V63.9333Z" fill="#FFDA2C"/>
<path fill-rule="evenodd" clip-rule="evenodd" d="M18.3809 22.7876C18.3809 20.2942 20.513 18.2666 22.9761 18.2666C25.5127 18.2666 27.5713 20.2394 27.5713 22.7876V41.1456C27.5713 43.639 25.4391 45.6666 22.9761 45.6666C20.4395 45.6666 18.3809 43.6938 18.3809 41.1456V22.7876ZM27.5713 41.0543C27.5713 38.5609 29.7035 36.5333 32.1666 36.5333C34.7031 36.5333 36.7618 38.5061 36.7618 41.0543V59.4123C36.7618 61.9057 34.6296 63.9333 32.1666 63.9333C29.63 63.9333 27.5713 61.9605 27.5713 59.4123V41.0543ZM27.5713 77.5876C27.5713 75.0942 29.7035 73.0666 32.1666 73.0666C34.7031 73.0666 36.7618 75.0394 36.7618 77.5876V95.9456C36.7618 98.439 34.6296 100.467 32.1666 100.467C29.63 100.467 27.5713 98.4938 27.5713 95.9456V77.5876V77.5876ZM18.3809 95.8543C18.3809 93.3609 20.513 91.3333 22.9761 91.3333C25.5127 91.3333 27.5713 93.3061 27.5713 95.8543V114.212C27.5713 116.706 25.4391 118.733 22.9761 118.733C20.4395 118.733 18.3809 116.76 18.3809 114.212V95.8543ZM18.3809 59.3666C18.3809 56.8458 20.513 54.7999 22.9761 54.7999C25.5127 54.7999 27.5713 56.9189 27.5713 59.3666C27.5713 61.8874 25.4391 63.9333 22.9761 63.9333C20.4395 63.9333 18.3809 61.8143 18.3809 59.3666ZM27.5713 22.8333C27.5713 20.3125 29.7035 18.2666 32.1666 18.2666C34.7031 18.2666 36.7618 20.3855 36.7618 22.8333C36.7618 25.3541 34.6296 27.3999 32.1666 27.3999C29.63 27.3999 27.5713 25.281 27.5713 22.8333ZM18.3809 68.4999C18.3809 65.9791 20.513 63.9333 22.9761 63.9333C25.5127 63.9333 27.5713 66.0522 27.5713 68.4999C27.5713 71.0207 25.4391 73.0666 22.9761 73.0666C20.4395 73.0666 18.3809 70.9477 18.3809 68.4999ZM27.5713 114.167C27.5713 111.646 29.7035 109.6 32.1666 109.6C34.7031 109.6 36.7618 111.719 36.7618 114.167C36.7618 116.687 34.6296 118.733 32.1666 118.733C29.63 118.733 27.5713 116.614 27.5713 114.167ZM18.3809 77.6333C18.3809 75.1125 20.513 73.0666 22.9761 73.0666C25.5127 73.0666 27.5713 75.1855 27.5713 77.6333C27.5713 80.1541 25.4391 82.1999 22.9761 82.1999C20.4395 82.1999 18.3809 80.081 18.3809 77.6333Z" fill="#FFDA2C"/>
</svg>
