<svg width="193" height="137" viewBox="0 0 193 137" fill="none" xmlns="http://www.w3.org/2000/svg">
<rect x="0.5" y="0.5" width="192" height="136" rx="2.5" fill="#F93939"/>
<rect x="0.5" y="0.5" width="192" height="136" rx="2.5" stroke="black"/>
<path fill-rule="evenodd" clip-rule="evenodd" d="M128.685 79.0216L118.006 84.5929L120.046 72.7835L111.407 64.4083L123.355 62.6729L128.685 51.9321L134.016 62.6821L145.963 64.4174L137.324 72.7744L139.365 84.5838" fill="white"/>
<path fill-rule="evenodd" clip-rule="evenodd" d="M87.3092 100.467C105.074 100.467 119.476 86.1548 119.476 68.5001C119.476 50.8454 105.074 36.5334 87.3092 36.5334C69.5441 36.5334 55.1426 50.8454 55.1426 68.5001C55.1426 86.1548 69.5441 100.467 87.3092 100.467ZM96.4997 91.3334C109.183 91.3334 119.476 81.1041 119.476 68.5001C119.476 55.8961 109.183 45.6668 96.4997 45.6668C83.8169 45.6668 73.5235 55.8961 73.5235 68.5001C73.5235 81.1041 83.8169 91.3334 96.4997 91.3334Z" fill="white"/>
</svg>
