<svg preserveAspectRatio="none" width="100%" height="100%" overflow="visible" style="display: block;" viewBox="0 0 46 46" fill="none" xmlns="http://www.w3.org/2000/svg">
<path id="Vector" fill-rule="evenodd" clip-rule="evenodd" d="M23.7561 33.0625H25.7888L27.1932 25.9857L30.5081 26.0001C32.8224 26.0001 34.7257 25.4078 36.2192 24.2233C37.7142 23.0388 38.5667 21.4619 38.7766 19.4896C38.9031 18.1369 38.6961 16.9596 38.1527 15.9606L34.2283 18.0119C34.2571 18.17 34.2729 18.3324 34.2786 18.4934C34.3103 19.7469 34.0156 20.7446 33.3946 21.4878C32.7736 22.2295 31.8996 22.609 30.7754 22.6277L27.8559 22.5989L28.1348 21.1974L23.0819 23.8381L22.1619 28.5027L20.9228 24.9665L17.1206 26.9546L18.676 33.0625H23.7561ZM21.8658 17.2644H24.3814L23.6167 21.1356L28.6709 18.4934L29.1022 16.3228L32.4013 16.3516C32.5019 16.3573 32.6025 16.3703 32.7003 16.3889L36.7253 14.2844C35.6529 13.4421 34.2801 12.9979 32.6054 12.9519L25.2367 12.9375H22.0527L19.3502 17.2644L17.8394 19.8217L16.0713 12.9375H11.0687L14.4785 22.7513L10.9322 27.7682L20.5045 22.7628L24.3814 17.2629L21.8658 17.2644ZM23 46C10.2968 46 0 35.7032 0 23C0 10.2968 10.2968 0 23 0C35.7032 0 46 10.2968 46 23C46 35.7032 35.7032 46 23 46ZM8.31737 31.556L8.28862 31.5028L7.1875 33.0625H12.5997L15.9749 27.5526L8.31737 31.556Z" fill="var(--fill-0, #0D5ED5)"/>
</svg>
