<svg preserveAspectRatio="none" width="100%" height="100%" overflow="visible" style="display: block;" viewBox="0 0 30 34" fill="none" xmlns="http://www.w3.org/2000/svg">
<g id="Social media logo">
<path id="vector" d="M28.1263 17.3304C28.1263 16.1073 28.0369 15.2148 27.8436 14.2893H15.2692V19.8095H22.65C22.5013 21.1813 21.6977 23.2473 19.912 24.6356L19.887 24.8204L23.8627 28.2412L24.1382 28.2718C26.6679 25.6769 28.1263 21.8589 28.1263 17.3304" fill="var(--fill-0, #4285F4)"/>
<path id="vector_2" d="M15.2675 31.875C18.8835 31.875 21.9192 30.5527 24.1365 28.2719L19.9103 24.6357C18.7794 25.5117 17.2615 26.1232 15.2675 26.1232C11.7259 26.1232 8.71995 23.5284 7.64842 19.9418L7.49136 19.9567L3.35729 23.5102L3.30322 23.6771C5.50557 28.5363 10.0294 31.875 15.2675 31.875Z" fill="var(--fill-0, #34A853)"/>
<path id="vector_3" d="M7.65058 19.942C7.36785 19.0165 7.20422 18.0247 7.20422 17.0001C7.20422 15.9753 7.36785 14.9837 7.6357 14.0581L7.62821 13.861L3.44232 10.2504L3.30537 10.3228C2.39767 12.3392 1.87683 14.6035 1.87683 17.0001C1.87683 19.3966 2.39767 21.6608 3.30537 23.6772L7.65058 19.942" fill="var(--fill-0, #FBBC05)"/>
<path id="vector_4" d="M15.2676 7.87663C17.7824 7.87663 19.4788 9.08315 20.4461 10.0914L24.2259 5.9925C21.9045 3.59598 18.8836 2.125 15.2676 2.125C10.0294 2.125 5.50558 5.46358 3.30322 10.3227L7.63357 14.058C8.71998 10.4715 11.7259 7.87663 15.2676 7.87663" fill="var(--fill-0, #EB4335)"/>
</g>
</svg>
